<?xml version="1.0" encoding="UTF-8"?>
<svg id="Layer_2" data-name="Layer 2" xmlns="http://www.w3.org/2000/svg" viewBox="0 0 1467.79 248.3">
  <defs>
    <style>
      .cls-1 {
        fill: #fff;
      }
    </style>
  </defs>
  <g id="Layer_1-2" data-name="Layer 1">
    <g>
      <path class="cls-1" d="M315.5,34.24h67.8c8.65,0,15.66,1.24,21.04,3.73,5.37,2.49,9.41,5.77,12.14,9.86,2.72,4.09,4.33,8.82,4.81,14.19.48,5.37.08,11.03-1.2,16.96-2.57,12.51-6.93,22.05-13.1,28.62-6.17,6.58-14.3,10.99-24.4,13.23v.48c6.25.96,10.94,2.65,14.06,5.05s5.21,5.45,6.25,9.14c1.04,3.69,1.32,7.94.84,12.75s-1.28,10.1-2.4,15.87c-1.6,8.66-2.81,15.43-3.61,20.32-.8,4.89-1.2,8.7-1.2,11.42,0,2.57.36,4.37,1.08,5.41.72,1.04,1.72,1.89,3,2.53l-.24,2.16h-43.52c-1.12-2.89-1.44-6.97-.96-12.27.48-5.29,1.76-12.83,3.85-22.61,1.44-7.37,2.36-13.43,2.76-18.16.4-4.73.24-8.42-.48-11.06-.72-2.65-2.04-4.45-3.97-5.41s-4.49-1.44-7.69-1.44h-15.39l-14.67,70.95h-40.39l35.58-171.73ZM340.74,106.63h12.5c4,0,7.49-.68,10.46-2.04,2.96-1.36,5.49-3.13,7.57-5.29,2.08-2.17,3.73-4.57,4.93-7.22s2.04-5.25,2.52-7.82c1.28-6.41.84-11.62-1.32-15.63-2.16-4.01-7.25-6.01-15.27-6.01h-12.26l-9.14,44.02Z"/>
      <path class="cls-1" d="M462.87,147.28l-1.68,7.94c-2.08,10.1-2.69,17.64-1.8,22.61.88,4.97,4.12,7.46,9.74,7.46,5.13,0,9.05-1.92,11.78-5.77,2.72-3.85,5.21-9.86,7.45-18.04h36.06c-3.69,16.36-10.58,28.42-20.68,36.2-10.1,7.78-23.32,11.67-39.67,11.67-12.18,0-21.4-2.01-27.65-6.01-6.25-4.01-10.46-9.38-12.62-16.12-2.16-6.73-2.81-14.51-1.92-23.33.88-8.82,2.36-18.04,4.45-27.66,1.92-9.14,4.45-17.6,7.57-25.38,3.13-7.78,7.25-14.51,12.38-20.2,5.13-5.69,11.46-10.14,18.99-13.35,7.53-3.21,16.59-4.81,27.17-4.81,12.02,0,21.07,1.8,27.17,5.41,6.09,3.61,10.18,8.74,12.26,15.39,2.08,6.66,2.6,14.55,1.56,23.69-1.04,9.14-2.69,19.24-4.93,30.31h-65.63ZM495.81,124.67c1.92-9.14,2.52-16.12,1.8-20.93-.72-4.81-3.81-7.22-9.26-7.22-6.41,0-11.02,2.49-13.82,7.46-2.81,4.97-5.09,11.87-6.85,20.68h28.13Z"/>
      <path class="cls-1" d="M549.66,115.77c2.08-9.14,4.97-16.43,8.65-21.89,3.69-5.45,8.17-9.78,13.46-12.99,5.13-3.21,10.7-5.41,16.71-6.62,6.01-1.2,13.1-1.8,21.28-1.8,16.03,0,27.08,2.97,33.18,8.9,6.09,5.93,7.77,15.8,5.05,29.58l-13.94,66.86c-.48,2.41-1,4.97-1.56,7.7-.56,2.73-.96,5.38-1.2,7.94-.24,2.57-.28,4.93-.12,7.1.16,2.16.72,3.97,1.68,5.41h-37.5c-.32-2.24-.36-4.65-.12-7.22.24-2.56.52-5.13.84-7.7h-.48c-3.85,5.77-8.82,10.26-14.91,13.47-6.09,3.21-12.5,4.81-19.23,4.81-11.06,0-18.96-3.09-23.68-9.26-4.73-6.17-5.65-16.31-2.77-30.43,1.6-7.7,4.45-14.47,8.53-20.32,4.09-5.85,8.85-10.14,14.3-12.87,5.29-2.72,11.34-4.81,18.15-6.25,6.81-1.44,13.1-2.89,18.87-4.33,3.04-.8,5.57-1.56,7.57-2.29,2-.72,3.61-1.6,4.81-2.65,1.2-1.04,2.16-2.36,2.89-3.97.72-1.6,1.32-3.61,1.8-6.01.8-4.01.48-7.17-.96-9.5-1.44-2.32-4.33-3.49-8.65-3.49-5.45,0-9.5,1.56-12.14,4.69-2.64,3.13-4.61,7.5-5.89,13.11h-34.62ZM573.22,165.8c-1.12,5.13-1,9.18.36,12.15,1.36,2.97,3.88,4.45,7.57,4.45,4.17,0,8.09-1.28,11.78-3.85,3.69-2.56,6.17-7.22,7.45-13.95,1.28-5.45,2.28-9.94,3-13.47.72-3.53,1.4-6.65,2.04-9.38-3.37,1.61-6.29,2.89-8.77,3.85-2.49.96-4.61,1.77-6.37,2.41-1.77.64-3.29,1.2-4.57,1.68-1.28.48-2.4,1.04-3.37,1.68-2.4,1.6-4.33,3.49-5.77,5.65-1.44,2.16-2.57,5.09-3.37,8.78Z"/>
      <path class="cls-1" d="M720.83,190.09h-.48c-1.12,2.25-2.61,4.49-4.45,6.73-1.84,2.25-4.09,4.29-6.73,6.13-2.64,1.84-5.69,3.37-9.14,4.57-3.45,1.2-7.33,1.8-11.66,1.8-9.94,0-17.43-2.81-22.48-8.42-5.05-5.61-7.57-14.91-7.57-27.9,0-8.82,1.28-19.16,3.85-31.03,2.08-10.1,4.49-19.4,7.21-27.9,2.72-8.5,6.09-15.83,10.1-22.01,4-6.17,8.81-10.98,14.42-14.43,5.61-3.45,12.42-5.17,20.44-5.17,2.72,0,5.41.28,8.05.84,2.65.56,5.09,1.48,7.33,2.77,2.24,1.29,4.24,3.09,6.01,5.41,1.76,2.33,3.13,5.17,4.09,8.54h.48l11.54-55.8h38.95l-35.58,171.73h-37.5l3.13-15.87ZM730.21,141.75c1.12-5.77,2.08-11.14,2.89-16.11.8-4.97,1.12-9.3.96-12.99-.16-3.69-.97-6.57-2.41-8.66-1.45-2.08-3.87-3.13-7.26-3.13-3.72,0-6.75.92-9.09,2.77-2.34,1.85-4.37,4.49-6.06,7.94-1.7,3.45-3.15,7.58-4.36,12.39-1.21,4.81-2.46,10.18-3.76,16.11-1.12,5.29-2.08,10.38-2.89,15.27-.8,4.89-1.08,9.22-.84,12.99.24,3.77,1.12,6.82,2.65,9.14,1.52,2.33,4.15,3.49,7.87,3.49,5.81,0,10.3-3.37,13.45-10.1,3.15-6.74,6.1-16.43,8.85-29.1Z"/>
      <path class="cls-1" d="M795.36,75.85h40.39l-3.12,91.16h.48l34.14-91.16h38.95l-62.27,131.08c-3.98,8.34-7.77,15.19-11.35,20.56-3.58,5.37-7.45,9.58-11.59,12.63-4.14,3.04-8.88,5.17-14.23,6.37-5.35,1.2-11.87,1.8-19.56,1.8h-8.9c-1.28,0-2.61-.04-3.97-.12-1.36-.08-2.69-.2-3.97-.36l5.77-27.42c2.72.64,5.85.96,9.38.96s7.29-1,10.82-3.01c3.52-2.01,6.41-5.81,8.66-11.42l-9.62-131.08Z"/>
      <path class="cls-1" d="M989.13,93.88c2.72-12.51,3.64-21.65,2.77-27.42-.88-5.77-4.69-8.66-11.42-8.66-4.17,0-7.61,1.04-10.34,3.13-2.73,2.09-5.17,5.5-7.33,10.22-2.16,4.73-4.21,10.94-6.13,18.64-1.92,7.7-4.09,17.16-6.49,28.38-2.73,12.83-4.77,23.37-6.13,31.63-1.36,8.26-1.89,14.79-1.56,19.6.32,4.81,1.52,8.18,3.61,10.1,2.08,1.92,5.21,2.89,9.38,2.89,3.68,0,6.85-1.04,9.5-3.13,2.64-2.08,4.93-5.01,6.85-8.78,1.92-3.77,3.64-8.33,5.17-13.71,1.52-5.37,3-11.42,4.45-18.16h38.95l-1.2,6.01c-1.92,9.3-4.53,17.88-7.81,25.74-3.29,7.86-7.74,14.67-13.34,20.44-5.61,5.77-12.66,10.3-21.16,13.59-8.5,3.29-18.99,4.93-31.49,4.93s-22.72-2.28-29.21-6.85-10.74-10.9-12.74-19c-2.01-8.09-2.37-17.64-1.08-28.62,1.28-10.98,3.28-22.97,6.01-35.96,2.24-11.06,4.89-21.85,7.93-32.35,3.04-10.5,7.37-19.88,12.98-28.14,5.61-8.26,12.94-14.91,22-19.96,9.05-5.05,20.71-7.58,34.98-7.58,8.81,0,16.47,1,22.96,3.01,6.49,2.01,11.58,5.25,15.27,9.74,3.68,4.49,6.01,10.26,6.97,17.32.96,7.06.4,15.63-1.68,25.74l-1.68,7.21h-38.95Z"/>
      <path class="cls-1" d="M1058.13,34.24h38.95l-35.58,171.73h-38.95l35.58-171.73Z"/>
      <path class="cls-1" d="M1132.65,209.33c-12.02,0-21.2-1.72-27.53-5.17-6.33-3.45-10.7-8.21-13.1-14.31-2.4-6.09-3.33-13.27-2.76-21.53.56-8.26,1.8-17.28,3.73-27.06,2.08-9.78,4.65-18.84,7.69-27.18,3.04-8.34,7.17-15.59,12.38-21.77,5.21-6.17,11.66-11.02,19.35-14.55,7.69-3.53,17.23-5.29,28.61-5.29s21,1.73,27.41,5.17c6.41,3.45,10.82,8.22,13.22,14.31,2.4,6.1,3.33,13.27,2.77,21.53-.56,8.26-1.89,17.28-3.97,27.06-2.08,9.78-4.65,18.84-7.69,27.18-3.05,8.34-7.17,15.6-12.38,21.77-5.21,6.17-11.66,11.03-19.35,14.55s-17.15,5.29-28.37,5.29ZM1161.5,141.03c1.6-8.02,2.8-14.79,3.61-20.32.8-5.53,1-9.98.6-13.35-.4-3.37-1.36-5.77-2.89-7.22s-3.82-2.17-6.89-2.17c-2.91,0-5.5.76-7.76,2.29-2.26,1.53-4.32,3.97-6.18,7.34-1.86,3.37-3.6,7.78-5.21,13.23-1.62,5.45-3.23,12.11-4.85,19.96-3.37,15.87-4.65,27.02-3.85,33.43.8,6.42,4.1,9.62,9.91,9.62,3.07,0,5.69-.72,7.88-2.16,2.18-1.44,4.12-3.85,5.82-7.22,1.7-3.37,3.31-7.78,4.85-13.23,1.53-5.45,3.19-12.18,4.97-20.2Z"/>
      <path class="cls-1" d="M1307.43,205.97h-37.5l3.12-15.39h-.48c-4.01,5.77-9.06,10.34-15.15,13.71-6.09,3.37-12.74,5.05-19.95,5.05-11.06,0-18.91-2.89-23.56-8.66-4.65-5.77-5.61-14.91-2.89-27.42l20.2-97.41h38.95l-18.51,88.75c-.96,4.65-.76,8.3.6,10.94,1.36,2.65,3.88,3.97,7.57,3.97s7.25-1.48,10.7-4.45c3.44-2.97,5.81-7.66,7.09-14.07l17.79-85.14h38.95l-26.93,130.12Z"/>
      <path class="cls-1" d="M1397.83,190.09h-.48c-1.12,2.25-2.61,4.49-4.45,6.73-1.84,2.25-4.09,4.29-6.73,6.13-2.64,1.84-5.69,3.37-9.14,4.57-3.45,1.2-7.33,1.8-11.66,1.8-9.94,0-17.43-2.81-22.48-8.42-5.05-5.61-7.57-14.91-7.57-27.9,0-8.82,1.28-19.16,3.85-31.03,2.08-10.1,4.49-19.4,7.21-27.9,2.72-8.5,6.09-15.83,10.1-22.01,4-6.17,8.81-10.98,14.42-14.43,5.61-3.45,12.42-5.17,20.44-5.17,2.72,0,5.41.28,8.05.84,2.64.56,5.09,1.48,7.33,2.77,2.24,1.29,4.25,3.09,6.01,5.41,1.76,2.33,3.13,5.17,4.09,8.54h.48l11.54-55.8h38.95l-35.58,171.73h-37.5l3.12-15.87ZM1407.21,141.75c1.12-5.77,2.08-11.14,2.88-16.11.8-4.97,1.12-9.3.96-12.99-.16-3.69-.96-6.57-2.41-8.66-1.45-2.08-3.87-3.13-7.26-3.13-3.72,0-6.75.92-9.09,2.77-2.34,1.85-4.37,4.49-6.06,7.94-1.7,3.45-3.15,7.58-4.36,12.39-1.21,4.81-2.46,10.18-3.76,16.11-1.12,5.29-2.08,10.38-2.88,15.27-.8,4.89-1.08,9.22-.84,12.99.24,3.77,1.12,6.82,2.65,9.14,1.53,2.33,4.15,3.49,7.87,3.49,5.81,0,10.3-3.37,13.45-10.1,3.15-6.74,6.1-16.43,8.85-29.1Z"/>
    </g>
    <g>
      <path class="cls-1" d="M27.38,138.29l9.99-6.84-1.05,40.54L0,160.93l10.01-8.69C-8.16,100.51,13.21,43,60.19,15.52c35.37-20.69,82.12-21.17,116.7,1.41l-16.66,13.84c-4.38-1.9-8.67-4.04-13.23-5.53-40.75-13.33-85.11,2.68-108.06,38.54-14.02,21.9-18.53,49.32-11.57,74.51Z"/>
      <path class="cls-1" d="M230.61,70.38l-10.01,8.69c17.09,48.66-.73,102.84-42.78,132-36.47,25.29-86.54,27.53-124.1,3.31l16.66-13.84c4.38,1.9,8.67,4.04,13.23,5.53,39.12,12.79,81.82-1.44,105.53-34.75,15.91-22.35,21.5-51.71,14.09-78.3l-9.99,6.84,1.06-40.54,36.32,11.06Z"/>
      <g>
        <path class="cls-1" d="M171.65,109.59c5.77,18.33-7.94,35.69-27.12,34.48-1.86-.11-3.63-1.13-5.54-.83-2.85.45-5.03,4.73-8.4,6.39-8.89,4.39-14.82.25-21.45-5.44-11.33-.74-22.93,1.33-33.97-1.84-31.27-8.96-22.14-51.57,8.22-48.76,2.52.24,4.64,1.99,7.37.42,1.3-.75,3.36-7.62,4.84-9.91,3.4-5.25,10.67-10.64,16.94-11.49,10.81-1.46,21.5,2.54,27.2,12.02,1.33,2.21,1.81,4.72,3.48,6.53,1.94,1.41,5.5.6,8.01.94,9,1.2,17.73,8.95,20.42,17.49Z"/>
        <path class="cls-1" d="M148.26,84.01c47.36,4.88,39.96,73.11-7.36,67.04-9.52,10.52-24.92,10.18-34.82.42-15.66-.24-33.35,2.23-46.31-8.45-17.34-14.31-14.89-42.19,4.83-53.06,7.09-3.92,13.71-4.08,21.66-3.88,10.87-27.65,48.84-28.4,62-2.07ZM144.53,144.07c19.18,1.21,32.89-16.15,27.12-34.48-2.69-8.54-11.42-16.29-20.42-17.49-2.51-.34-6.07.47-8.01-.94-1.67-1.81-2.15-4.32-3.48-6.53-5.7-9.48-16.39-13.48-27.2-12.02-6.27.85-13.54,6.24-16.94,11.49-1.48,2.29-3.54,9.16-4.84,9.91-2.73,1.57-4.85-.18-7.37-.42-30.36-2.81-39.49,39.8-8.22,48.76,11.04,3.17,22.64,1.1,33.97,1.84,6.63,5.69,12.56,9.83,21.45,5.44,3.37-1.66,5.55-5.94,8.4-6.39,1.91-.3,3.68.72,5.54.83Z"/>
      </g>
    </g>
  </g>
</svg>