<svg xmlns="http://www.w3.org/2000/svg" id="Layer_1" viewBox="0 0 294.87 88.8"><defs><style>.cls-1{fill:#28bde2;}.cls-2{fill:#2c3a43;}</style></defs><path class="cls-2" d="m136.11,41.77c0,3.47-1.79,5.75-5.85,5.75h-29.66v1.59c0,9.32,6.05,14.58,14.78,14.58,3.57,0,7.64-.99,12.1-2.58,3.57-1.39,5.76.89,5.76,3.17,0,1.29-.5,2.48-2.18,3.57-3.18,1.88-10.12,3.17-15.78,3.17-13.69,0-21.83-8.63-22.52-21.33-.2-3.77-.2-8.83.1-11.9,1.09-12.8,9.82-20.54,21.92-20.54,13.1,0,21.33,8.93,21.33,21.53v2.98Zm-9.13-.99c.79,0,1.19-.4,1.29-1.19.6-9.03-4.86-15.08-13.4-15.08-9.72,0-14.58,6.35-14.29,16.27h26.39Z"></path><path class="cls-2" d="m159.32,50l-14.78,19.05c-1.39,1.79-4.17,1.98-5.75.7-1.69-1.49-1.98-3.97-.5-5.76l15.97-20.24-15.08-19.05c-1.49-1.89-1.29-4.27.6-5.76,1.69-1.39,4.27-.99,5.56.7l13.89,17.86,13.89-17.76c1.39-1.79,4.17-2.18,5.95-.79,1.69,1.39,1.89,3.97.4,5.86l-14.98,19.05,15.87,20.14c1.49,1.79,1.39,4.37-.6,5.76-1.69,1.29-4.37.89-5.55-.7l-14.88-19.05Z"></path><path class="cls-2" d="m189.88,10.02c-2.78,0-4.86-2.38-4.86-5.06S187.1,0,189.88,0s4.96,2.18,4.96,4.96-2.18,5.06-4.96,5.06m4.07,12.1v44.25c0,2.38-1.69,4.17-4.07,4.17-2.08,0-3.97-1.79-3.97-4.17V22.12c0-2.28,1.68-4.17,3.97-4.17s4.07,1.88,4.07,4.17"></path><path class="cls-2" d="m243.95,66.47c0,13.49-8.04,22.32-24.8,22.32-3.27,0-7.04-.4-11.11-1.09-1.98-.4-3.57-1.59-3.57-3.67s1.59-4.47,4.66-3.87c3.87.79,7.24,1.19,10.32,1.19,11.21,0,16.47-5.36,16.47-15.08-3.57,1.69-8.73,3.37-14.68,3.37-12.3,0-19.74-8.04-20.44-19.74-.2-3.87-.2-8.63,0-12.5.7-11.81,8.83-20.14,20.74-20.14,10.42,0,18.06,3.87,20.73,5.95,1.29.79,1.69,1.89,1.69,3.47v39.78Zm-35.12-28.57c-.2,3.47-.1,8.14,0,11.51.6,7.74,4.56,12.8,12.6,12.8s12.6-2.58,14.48-4.07v-29.67c-.3-.3-5.66-3.57-13.4-3.57-9.03,0-12.99,5.26-13.69,13"></path><path class="cls-2" d="m294.64,36.91c.3,4.07.3,10.12,0,14.09-.69,11.61-9.82,20.04-22.12,20.04s-21.43-8.43-22.12-20.04c-.2-3.97-.2-10.02,0-14.09.7-11.61,9.92-19.64,22.12-19.64s21.43,8.04,22.12,19.64m-36.21.6c-.2,3.47-.2,9.62,0,13,.69,7.74,6.05,13,14.09,13s13.4-5.26,14.09-13c.2-3.37.2-9.52,0-13-.5-7.34-5.75-12.7-14.09-12.7s-13.59,5.36-14.09,12.7"></path><path class="cls-1" d="m76.52,56.51c1.05-.11,2.11-.21,3.13-.34-1.05.07-2.15.11-3.22.16-1.69-3.36-3.53-6.78-5.53-10.22-1.04-1.8-2.1-3.55-3.17-5.27,1.07-1.72,2.13-3.47,3.17-5.27,2-3.45,3.84-6.87,5.53-10.22,1.07.05,2.16.09,3.21.16-1.02-.13-2.08-.23-3.12-.34,1.67-3.33,3.18-6.59,4.52-9.76-1.58,3.18-3.32,6.42-5.18,9.69-5.88-.6-12.17-.94-18.76-.94-.38,0-.75,0-1.13,0-3.32-4.13-6.61-7.73-9.73-10.69.48-.86.98-1.74,1.49-2.61,2.2-3.8,4.48-7.43,6.79-10.85-2.99,3.92-5.98,8.26-8.9,12.89-7.47-6.91-13.97-10.05-17.82-7.82-4.15,2.41-4.4,10.58-1.47,21.71C10.51,29.75,0,34.93,0,40.84s10.51,11.08,26.35,14.05c-2.93,11.13-2.68,19.3,1.47,21.7,3.85,2.23,10.35-.91,17.81-7.82,2.92,4.64,5.91,8.98,8.9,12.9-2.31-3.42-4.58-7.05-6.79-10.86-.51-.88-1.01-1.75-1.49-2.62,3.12-2.96,6.41-6.56,9.73-10.69.38,0,.75,0,1.13,0,6.58,0,12.87-.34,18.75-.94,1.86,3.26,3.6,6.51,5.18,9.7-1.34-3.17-2.85-6.44-4.52-9.77Zm-9.66-31.43c3.03,0,5.98.09,8.88.23-.26.45-.49.9-.76,1.36-2.72,4.69-5.45,8.94-8.13,12.77-3.26-5.14-6.61-9.87-9.93-14.09,3.16-.17,6.47-.26,9.94-.26Zm-14.13,30.97c-4.94-.39-9.43-1-13.47-1.76-2.15-4.88-3.8-9.39-4.97-13.45,1.17-4.06,2.82-8.57,4.97-13.45,4.03-.77,8.53-1.37,13.47-1.76,4.09,3.75,8.55,8.84,13.13,15.21-4.59,6.38-9.04,11.46-13.13,15.21Zm-15.59-2.19c-1.77-.38-3.43-.79-4.99-1.23.09-2.12.41-4.52.97-7.16,1.22,2.74,2.57,5.54,4.02,8.38Zm-4.02-17.67c-.56-2.64-.88-5.03-.97-7.16,1.56-.44,3.23-.85,4.99-1.23-1.45,2.84-2.8,5.65-4.02,8.38Zm18.06-11.95c-3.71.11-7.31.33-10.78.64.88-1.9,1.84-3.85,2.87-5.85,2.38,1.03,5.04,2.77,7.91,5.22Zm-15.47-5.56c1.69-.98,3.89-.99,6.47-.08-.04.07-.09.14-.13.22-1.21,2.09-2.36,4.17-3.46,6.24-2.19.22-4.32.47-6.37.76.32-3.53,1.5-5.98,3.5-7.14Zm-19.98,22.16c0-3.8,4.13-7.45,11.71-10.28,1,3.24,2.24,6.68,3.7,10.27-1.46,3.59-2.7,7.03-3.7,10.27-7.57-2.83-11.71-6.48-11.71-10.27Zm19.98,22.16c-2-1.16-3.18-3.61-3.5-7.15,2.06.29,4.19.54,6.37.76,1.1,2.07,2.25,4.15,3.46,6.24.04.08.09.15.13.22-2.58.91-4.78.9-6.47-.08Zm7.57-.35c-1.03-2-1.99-3.95-2.87-5.85,3.46.31,7.07.53,10.77.64-2.87,2.44-5.53,4.19-7.91,5.22Zm23.6-6.06c-3.47,0-6.77-.09-9.94-.26,3.32-4.22,6.67-8.95,9.93-14.09,2.69,3.83,5.41,8.08,8.13,12.77.26.45.5.9.76,1.35-2.9.13-5.85.23-8.88.23Z"></path></svg>